<?xml version="1.0" encoding="iso-8859-1"?>
<!-- Generator: Adobe Illustrator 19.0.0, SVG Export Plug-In . SVG Version: 6.00 Build 0)  -->
<svg version="1.1" id="Layer_1" xmlns="http://www.w3.org/2000/svg" xmlns:xlink="http://www.w3.org/1999/xlink" x="0px" y="0px"
	 viewBox="0 0 505 505" style="enable-background:new 0 0 505 505;" xml:space="preserve">
<circle style="fill:#324A5E;" cx="252.5" cy="252.5" r="252.5"/>
<polygon style="fill:#FFFFFF;" points="325.6,86.1 325.6,139.7 379.1,139.7 379.1,418.9 125.9,418.9 125.9,86.1 "/>
<polygon style="fill:#E6E9EE;" points="325.6,86.1 379.1,139.7 325.6,139.7 "/>
<g>
	<path style="fill:#4CDBC4;" d="M197.7,374.1c0,11.8-9.5,21.3-21.3,21.3s-21.3-9.5-21.3-21.3s9.5-21.3,21.3-21.3v21.3H197.7z"/>
	<path style="fill:#4CDBC4;" d="M202.5,369.3h-21.3V348C193,347.9,202.5,357.5,202.5,369.3z"/>
	<path style="fill:#4CDBC4;" d="M197.7,307.1c0,11.8-9.5,21.3-21.3,21.3s-21.3-9.5-21.3-21.3s9.5-21.3,21.3-21.3v21.3H197.7z"/>
	<path style="fill:#4CDBC4;" d="M202.5,302.3h-21.3V281C193,281,202.5,290.5,202.5,302.3z"/>
</g>
<g>
	<rect x="230.9" y="286.3" style="fill:#E6E9EE;" width="116" height="11.3"/>
	<rect x="230.9" y="310.1" style="fill:#E6E9EE;" width="88.1" height="11.3"/>
	<rect x="230.9" y="353" style="fill:#E6E9EE;" width="116" height="11.3"/>
	<rect x="230.9" y="376.8" style="fill:#E6E9EE;" width="88.1" height="11.3"/>
</g>
<g>
	<rect x="197.4" y="192.1" style="fill:#FF7058;" width="21.8" height="39"/>
	<rect x="241.6" y="145.1" style="fill:#FF7058;" width="21.8" height="85.9"/>
	<rect x="285.8" y="171" style="fill:#FF7058;" width="21.8" height="60.1"/>
</g>
<g>
</g>
<g>
</g>
<g>
</g>
<g>
</g>
<g>
</g>
<g>
</g>
<g>
</g>
<g>
</g>
<g>
</g>
<g>
</g>
<g>
</g>
<g>
</g>
<g>
</g>
<g>
</g>
<g>
</g>
</svg>
